<svg width="2928" height="1224" viewBox="0 0 2928 1224" fill="none" xmlns="http://www.w3.org/2000/svg">
<path fill-rule="evenodd" clip-rule="evenodd" d="M70.9895 936.148C67.3764 940.802 62.7397 944.562 57.439 947.134C52.1384 949.707 46.3164 951.024 40.4245 950.983C35.1944 951.074 30.001 950.094 25.1643 948.101C20.3276 946.109 15.9501 943.147 12.3014 939.399C8.55807 935.754 5.60256 931.379 3.6177 926.546C1.63285 921.713 0.660861 916.523 0.761884 911.299C0.381518 902.526 3.37553 893.94 9.1288 887.306L210.11 617.203C225.314 597.238 246.947 583.137 271.351 577.285C295.754 571.433 321.43 574.189 344.035 585.086C358.422 591.801 370.92 601.979 380.408 614.709L580.961 883.628C584.294 887.514 587.098 891.826 589.299 896.448C591.519 901.247 592.642 906.481 592.584 911.769C592.602 916.986 591.586 922.155 589.595 926.977C587.603 931.799 584.676 936.178 580.982 939.863C577.289 943.547 572.901 946.462 568.074 948.441C563.247 950.419 558.075 951.422 552.859 951.39C546.735 951.577 540.662 950.238 535.185 947.494C529.708 944.75 524.999 940.687 521.483 935.671L329.102 678.446C324.553 673.36 319.721 668.534 314.63 663.992C312.379 661.521 309.637 659.547 306.58 658.195C303.523 656.843 300.218 656.144 296.876 656.141C293.533 656.138 290.227 656.833 287.168 658.18C284.109 659.527 281.364 661.497 279.109 663.964C274.11 668.332 269.536 673.164 265.449 678.395L70.9895 936.148Z" fill="#FF0000"/>
<path fill-rule="evenodd" clip-rule="evenodd" d="M245.478 861.907C245.524 851.77 248.564 841.872 254.215 833.455C259.866 825.039 267.878 818.479 277.243 814.598C286.609 810.718 296.912 809.69 306.86 811.644C316.808 813.598 325.957 818.446 333.159 825.58C337.943 830.364 341.738 836.043 344.328 842.293C346.917 848.543 348.25 855.242 348.251 862.007C348.251 868.772 346.919 875.472 344.33 881.722C341.742 887.973 337.948 893.652 333.164 898.436C328.381 903.22 322.702 907.015 316.451 909.605C310.201 912.194 303.502 913.527 296.737 913.528C289.972 913.528 283.272 912.196 277.022 909.607C270.771 907.019 265.092 903.224 260.308 898.441C255.469 893.689 251.656 887.995 249.105 881.712C246.555 875.428 245.32 868.687 245.478 861.907Z" fill="#FF0000"/>
<path fill-rule="evenodd" clip-rule="evenodd" d="M1615.47 937.082C1610.36 943.491 1603.38 948.15 1595.5 950.412C1587.62 952.674 1579.23 952.427 1571.49 949.704C1563.76 946.982 1557.06 941.92 1552.34 935.22C1547.61 928.52 1545.09 920.515 1545.12 912.316C1544.74 903.543 1547.73 894.957 1553.49 888.323L1754.55 618.22C1769.76 598.252 1791.4 584.149 1815.81 578.297C1840.22 572.445 1865.91 575.203 1888.52 586.104C1902.9 592.88 1915.38 603.114 1924.85 615.893L2125.32 884.645C2128.66 888.539 2131.47 892.865 2133.66 897.507C2135.88 902.29 2137 907.511 2136.94 912.786C2136.96 918 2135.94 923.165 2133.96 927.984C2131.97 932.803 2129.04 937.181 2125.35 940.865C2121.66 944.548 2117.28 947.465 2112.46 949.446C2107.64 951.427 2102.47 952.433 2097.26 952.407C2091.13 952.597 2085.05 951.26 2079.56 948.516C2074.08 945.772 2069.36 941.708 2065.84 936.688L1873.46 679.463C1868.93 674.376 1864.11 669.551 1859.03 665.009C1856.77 662.537 1854.03 660.562 1850.97 659.21C1847.91 657.858 1844.6 657.158 1841.25 657.155C1837.91 657.153 1834.6 657.847 1831.54 659.195C1828.47 660.542 1825.73 662.513 1823.47 664.981C1818.47 669.349 1813.89 674.181 1809.81 679.412L1615.47 937.082Z" fill="#FF0000"/>
<path fill-rule="evenodd" clip-rule="evenodd" d="M1789.92 862.924C1790.04 851.202 1794.21 839.883 1801.72 830.888C1809.24 821.893 1819.64 815.777 1831.16 813.579C1842.67 811.382 1854.59 813.238 1864.89 818.832C1875.19 824.427 1883.24 833.415 1887.67 844.269C1892.09 855.124 1892.63 867.176 1889.18 878.379C1885.72 889.582 1878.5 899.245 1868.73 905.726C1858.96 912.208 1847.25 915.108 1835.59 913.935C1823.93 912.762 1813.03 907.588 1804.75 899.291C1799.93 894.559 1796.13 888.892 1793.58 882.639C1791.03 876.385 1789.78 869.676 1789.92 862.924Z" fill="#FF0000"/>
<path fill-rule="evenodd" clip-rule="evenodd" d="M2606.4 843.329C2547.61 764.562 2489.27 685.962 2429.94 607.653C2422.52 597.635 2412.85 589.506 2401.7 583.928C2390.55 578.349 2378.24 575.478 2365.77 575.547C2355.18 575.641 2344.71 577.831 2334.96 581.988C2325.22 586.146 2316.39 592.189 2308.99 599.772C2301.59 607.354 2295.76 616.325 2291.84 626.168C2287.92 636.011 2285.99 646.532 2286.15 657.126L2285.95 912.946C2285.94 923.463 2290.11 933.552 2297.54 940.994C2304.97 948.436 2315.05 952.622 2325.57 952.63C2336.09 952.638 2346.18 948.469 2353.62 941.038C2361.06 933.608 2365.25 923.526 2365.25 913.009C2365.32 826.553 2365.39 740.083 2365.46 653.599L2577.86 937.345C2580.99 942.092 2585.24 945.988 2590.25 948.686C2595.26 951.383 2600.85 952.797 2606.54 952.802C2612.22 952.806 2617.82 951.401 2622.83 948.712C2627.84 946.022 2632.11 942.132 2635.25 937.391L2848.09 653.982C2848.02 740.466 2847.95 826.936 2847.89 913.392C2847.88 923.909 2852.05 933.998 2859.48 941.44C2866.91 948.882 2876.99 953.068 2887.51 953.076C2898.02 953.084 2908.11 948.915 2915.55 941.484C2923 934.054 2927.18 923.972 2927.19 913.455L2927.39 657.635C2927.79 640.715 2922.8 624.108 2913.14 610.21C2903.48 596.312 2889.65 585.843 2873.66 580.313C2857.66 574.783 2840.33 574.478 2824.15 579.443C2807.97 584.407 2793.78 594.384 2783.64 607.934C2723.89 686.148 2665.31 764.655 2606.4 843.329Z" fill="#FF0000"/>
<path fill-rule="evenodd" clip-rule="evenodd" d="M1170.07 935.142L775.176 934.829C770.18 934.98 765.207 934.104 760.563 932.255C755.919 930.406 751.704 927.624 748.179 924.081C744.588 920.562 741.753 916.348 739.848 911.696C737.943 907.043 737.007 902.051 737.098 897.025L737.313 626.762C737.441 616.617 741.559 606.93 748.774 599.796C755.989 592.663 765.722 588.656 775.868 588.643L1170.68 588.956C1295.9 589.348 1397.05 667.606 1396.85 763.189C1396.65 858.772 1295.25 935.2 1170.07 935.101L1170.07 935.142ZM1173.64 856.091C1226.82 856.634 1317.58 828.824 1317.72 762.333C1317.85 695.843 1226.92 667.638 1173.83 667.972L816.293 667.688L816.144 855.807L1173.64 856.091Z" fill="#FF0000"/>
<path fill-rule="evenodd" clip-rule="evenodd" d="M1298.37 1.86818L814.191 1.4839C682.461 2.13066 576.188 112.948 576.086 241.004C575.984 369.061 670.321 467.306 791.23 479.632L1320.99 480.052C1382.01 473.851 1438.33 444.495 1478.36 398.026C1518.39 351.557 1539.09 291.512 1536.19 230.246C1533.29 168.98 1507.02 111.156 1462.78 68.6737C1418.54 26.1913 1359.7 2.28261 1298.37 1.86818ZM802.187 400.169C722.173 400.565 656.907 329.806 656.519 240.15C656.13 151.62 720.506 80.7144 798.642 81.0268L1311.24 81.4337C1412.59 80.3037 1457.48 150.921 1456.91 240.785C1456.38 328.98 1393.51 400.638 1315.37 400.576L802.187 400.169Z" fill="#FF0000"/>
<path fill-rule="evenodd" clip-rule="evenodd" d="M884.832 240.665C884.839 231.736 883.088 222.893 879.677 214.641C876.267 206.389 871.264 198.889 864.956 192.57C858.647 186.252 851.155 181.237 842.909 177.814C834.662 174.39 825.822 172.625 816.893 172.618C807.964 172.61 799.121 174.362 790.869 177.773C782.617 181.183 775.117 186.185 768.798 192.494C762.48 198.803 757.465 206.295 754.042 214.541C750.618 222.788 748.853 231.628 748.845 240.557C748.838 249.486 750.59 258.329 754 266.581C757.411 274.833 762.413 282.333 768.722 288.651C775.031 294.97 782.522 299.984 790.769 303.408C799.016 306.832 807.856 308.597 816.785 308.604C825.714 308.611 834.557 306.86 842.809 303.449C851.061 300.039 858.56 295.036 864.879 288.728C871.198 282.419 876.212 274.927 879.636 266.681C883.059 258.434 884.825 249.594 884.832 240.665Z" fill="black"/>
<path fill-rule="evenodd" clip-rule="evenodd" d="M1228.64 240.938C1228.65 232.009 1230.41 223.169 1233.84 214.922C1237.26 206.675 1242.27 199.184 1248.59 192.875C1254.91 186.566 1262.41 181.564 1270.66 178.153C1278.92 174.743 1287.76 172.991 1296.69 172.998C1305.62 173.005 1314.46 174.771 1322.7 178.195C1330.95 181.618 1338.44 186.633 1344.75 192.951C1351.06 199.27 1356.06 206.77 1359.47 215.022C1362.88 223.274 1364.63 232.117 1364.63 241.046C1364.62 249.975 1362.85 258.815 1359.43 267.062C1356.01 275.308 1350.99 282.8 1344.67 289.108C1338.36 295.417 1330.86 300.42 1322.6 303.83C1314.35 307.241 1305.51 308.992 1296.58 308.985C1287.65 308.978 1278.81 307.212 1270.56 303.789C1262.32 300.365 1254.83 295.351 1248.52 289.032C1242.21 282.713 1237.21 275.214 1233.8 266.962C1230.39 258.71 1228.63 249.867 1228.64 240.938Z" fill="black"/>
<path d="M1674.89 1065.14C1681.42 1065.23 1687.87 1066.66 1693.84 1069.33C1705.4 1074.34 1714.57 1083.64 1719.4 1095.27C1722.49 1102.63 1723.73 1110.64 1722.99 1118.59C1722.26 1126.54 1719.58 1134.18 1715.19 1140.85C1712.64 1144.66 1709.59 1148.11 1706.13 1151.11C1702.62 1154.12 1698.7 1156.59 1694.47 1158.45L1720.6 1215.86C1720.9 1216.44 1721.08 1217.08 1721.14 1217.74C1721.16 1218.26 1721.09 1218.78 1720.93 1219.28C1720.93 1219.66 1720.39 1219.91 1719.76 1220.07C1718.8 1220.29 1717.82 1220.4 1716.84 1220.41L1711.21 1220.4C1710.6 1220.4 1710.02 1220.21 1709.53 1219.85C1709.05 1219.5 1708.68 1219.01 1708.49 1218.44L1682.66 1161.36C1681.29 1161.71 1679.89 1161.97 1678.49 1162.15C1676.88 1162.32 1675.26 1162.41 1673.64 1162.4L1622.93 1162.36L1622.89 1216.41C1622.96 1216.92 1622.91 1217.44 1622.74 1217.92C1622.58 1218.41 1622.3 1218.85 1621.94 1219.22C1621.57 1219.58 1621.13 1219.85 1620.64 1220.02C1620.16 1220.18 1619.64 1220.23 1619.13 1220.16L1614.66 1220.16C1614.15 1220.23 1613.63 1220.18 1613.15 1220.01C1612.66 1219.85 1612.22 1219.57 1611.85 1219.21C1611.49 1218.84 1611.22 1218.4 1611.05 1217.91C1610.89 1217.43 1610.84 1216.91 1610.91 1216.4L1611.03 1068.56C1611.3 1067.59 1611.75 1066.68 1612.36 1065.89C1612.69 1065.59 1613.07 1065.37 1613.49 1065.23C1613.91 1065.1 1614.35 1065.05 1614.79 1065.1L1674.89 1065.14ZM1668.77 1150.5L1670.44 1150.5C1673.15 1150.5 1675.82 1150.5 1678.45 1150.29C1681.13 1150.16 1683.78 1149.63 1686.3 1148.72C1689.89 1147.5 1693.27 1145.75 1696.32 1143.51C1699.36 1141.31 1702.02 1138.65 1704.22 1135.62C1707.48 1131.14 1709.69 1125.98 1710.68 1120.53C1711.67 1115.08 1711.43 1109.47 1709.96 1104.13C1708.5 1098.78 1705.84 1093.83 1702.21 1089.65C1698.57 1085.47 1694.04 1082.16 1688.94 1079.97C1684.41 1077.99 1679.5 1076.99 1674.55 1077.04L1623 1077L1622.94 1150.46L1668.77 1150.5Z" fill="black"/>
<path d="M1952.1 1143.08C1952.1 1128.99 1955.85 1115.15 1962.94 1102.98C1966.44 1097.12 1970.65 1091.71 1975.48 1086.88C1980.3 1082.02 1985.73 1077.81 1991.64 1074.37C1997.62 1070.92 2004 1068.23 2010.64 1066.37C2024.45 1062.54 2039.04 1062.55 2052.84 1066.4C2059.48 1068.27 2065.86 1070.97 2071.82 1074.43C2077.69 1077.91 2083.09 1082.12 2087.88 1086.97C2092.73 1091.78 2096.93 1097.2 2100.39 1103.09C2103.85 1109.1 2106.54 1115.53 2108.39 1122.21C2110.32 1129.1 2111.28 1136.22 2111.25 1143.38C2111.27 1150.5 2110.3 1157.6 2108.36 1164.45C2106.49 1171.08 2103.79 1177.44 2100.33 1183.4C2096.86 1189.26 2092.65 1194.64 2087.79 1199.41C2082.98 1204.24 2077.58 1208.44 2071.71 1211.92C2065.75 1215.38 2059.37 1218.06 2052.72 1219.88C2042.48 1222.65 2031.79 1223.35 2021.27 1221.93C2010.76 1220.52 2000.64 1217.02 1991.49 1211.65C1985.61 1208.17 1980.2 1203.96 1975.39 1199.12C1970.56 1194.3 1966.36 1188.9 1962.88 1183.04C1955.79 1170.89 1952.07 1157.07 1952.1 1143L1952.1 1143.08ZM1964.33 1143.09C1964.26 1152.08 1966.04 1161 1969.57 1169.27C1976.38 1185.39 1989.2 1198.23 2005.31 1205.07C2013.61 1208.6 2022.54 1210.4 2031.56 1210.35C2037.6 1210.38 2043.61 1209.57 2049.43 1207.94C2055.04 1206.39 2060.43 1204.12 2065.46 1201.19C2070.41 1198.27 2074.98 1194.76 2079.08 1190.72C2083.15 1186.67 2086.69 1182.12 2089.61 1177.17C2092.55 1172.12 2094.84 1166.73 2096.42 1161.1C2098.02 1155.27 2098.83 1149.25 2098.82 1143.2C2098.89 1134.23 2097.09 1125.34 2093.54 1117.11C2090.1 1109.16 2085.21 1101.92 2079.11 1095.77C2072.98 1089.63 2065.73 1084.72 2057.75 1081.31C2049.52 1077.73 2040.64 1075.9 2031.67 1075.95C2025.62 1075.92 2019.59 1076.73 2013.76 1078.35C2008.12 1079.9 2002.7 1082.17 1997.64 1085.1C1992.66 1088 1988.08 1091.55 1984.03 1095.65C1979.98 1099.73 1976.46 1104.3 1973.54 1109.25C1970.59 1114.29 1968.3 1119.69 1966.72 1125.31C1965.13 1131.08 1964.33 1137.03 1964.33 1143.01L1964.33 1143.09Z" fill="black"/>
<path d="M2414.93 1065.73C2420.46 1065.7 2425.95 1066.75 2431.08 1068.83C2435.95 1070.73 2440.4 1073.57 2444.18 1077.19C2447.91 1080.85 2450.87 1085.23 2452.89 1090.05C2455.04 1095.09 2456.13 1100.52 2456.09 1106C2456.16 1112.58 2454.49 1119.06 2451.24 1124.78C2448.11 1130.29 2443.73 1135 2438.45 1138.5C2442.15 1140.07 2445.57 1142.21 2448.59 1144.85C2451.68 1147.52 2454.39 1150.6 2456.64 1154C2458.91 1157.45 2460.68 1161.2 2461.89 1165.15C2463.15 1169.21 2463.78 1173.43 2463.76 1177.67C2463.77 1183.27 2462.67 1188.82 2460.53 1193.99C2458.5 1199.02 2455.55 1203.63 2451.84 1207.59C2448.14 1211.54 2443.72 1214.74 2438.81 1217.01C2433.75 1219.39 2428.24 1220.64 2422.65 1220.67L2352.45 1220.62C2351.62 1220.6 2350.83 1220.27 2350.23 1219.7C2349.7 1219.12 2349.35 1218.39 2349.23 1217.61L2349.35 1069.64C2349.35 1067.89 2349.73 1066.81 2350.48 1066.35C2351.17 1065.92 2351.97 1065.69 2352.78 1065.68L2414.93 1065.73ZM2443.03 1106.37C2443.08 1102.7 2442.39 1099.07 2440.99 1095.68C2439.59 1092.29 2437.52 1089.22 2434.9 1086.66C2432.35 1084.16 2429.33 1082.19 2426.02 1080.85C2422.49 1079.45 2418.72 1078.74 2414.92 1078.75L2362.41 1078.71L2362.37 1134.14L2414.75 1134.18C2422.22 1134.26 2429.43 1131.39 2434.79 1126.19C2437.46 1123.63 2439.58 1120.55 2441.02 1117.14C2442.46 1113.73 2443.19 1110.07 2443.15 1106.37L2443.03 1106.37ZM2450.65 1177.87C2450.65 1173.94 2449.86 1170.05 2448.32 1166.43C2446.81 1162.83 2444.7 1159.51 2442.07 1156.62C2439.5 1153.79 2436.42 1151.47 2432.98 1149.81C2429.58 1148.12 2425.84 1147.24 2422.04 1147.25L2362.36 1147.21L2362.31 1207.73L2422.79 1207.78C2426.48 1207.78 2430.12 1206.94 2433.43 1205.32C2440.26 1202.07 2445.62 1196.37 2448.43 1189.35C2449.92 1185.71 2450.68 1181.81 2450.65 1177.87Z" fill="black"/>
<path d="M2690.64 1143.67C2690.63 1136.53 2691.59 1129.43 2693.49 1122.55C2695.33 1115.91 2698.02 1109.53 2701.48 1103.57C2704.97 1097.69 2709.18 1092.28 2714.02 1087.46C2718.81 1082.6 2724.23 1078.39 2730.14 1074.96C2736.11 1071.51 2742.49 1068.82 2749.13 1066.96C2762.94 1063.13 2777.53 1063.14 2791.33 1066.99C2797.98 1068.85 2804.35 1071.55 2810.32 1075.02C2816.18 1078.5 2821.58 1082.71 2826.38 1087.55C2831.22 1092.37 2835.43 1097.78 2838.89 1103.67C2842.35 1109.69 2845.03 1116.11 2846.89 1122.8C2848.81 1129.69 2849.78 1136.81 2849.75 1143.96C2849.77 1151.09 2848.79 1158.18 2846.85 1165.04C2844.98 1171.66 2842.28 1178.03 2838.82 1183.98C2835.36 1189.84 2831.14 1195.23 2826.29 1200C2821.48 1204.83 2816.07 1209.03 2810.21 1212.51C2804.25 1215.97 2797.86 1218.64 2791.21 1220.47C2777.67 1224.2 2763.38 1224.28 2749.8 1220.68C2736.22 1217.08 2723.84 1209.95 2713.93 1199.99C2704.2 1190.3 2697.18 1178.24 2693.54 1165C2691.6 1158.06 2690.62 1150.88 2690.64 1143.67ZM2702.87 1143.68C2702.79 1152.67 2704.58 1161.58 2708.11 1169.85C2714.92 1185.99 2727.76 1198.84 2743.89 1205.65C2752.17 1209.19 2761.09 1210.99 2770.1 1210.93C2776.14 1210.97 2782.15 1210.16 2787.97 1208.53C2793.58 1206.97 2798.97 1204.7 2804 1201.78C2808.95 1198.86 2813.52 1195.34 2817.61 1191.31C2821.69 1187.26 2825.22 1182.7 2828.14 1177.75C2831.09 1172.71 2833.38 1167.31 2834.96 1161.69C2836.56 1155.86 2837.36 1149.83 2837.35 1143.79C2837.43 1134.82 2835.63 1125.93 2832.07 1117.69C2828.64 1109.74 2823.75 1102.5 2817.65 1096.35C2811.51 1090.22 2804.26 1085.31 2796.29 1081.89C2782.39 1075.97 2766.9 1074.93 2752.34 1078.94C2746.68 1080.48 2741.25 1082.75 2736.18 1085.69C2731.2 1088.59 2726.62 1092.13 2722.57 1096.24C2718.52 1100.32 2714.99 1104.88 2712.08 1109.84C2709.15 1114.84 2706.87 1120.19 2705.3 1125.77C2703.68 1131.58 2702.87 1137.57 2702.87 1143.59L2702.87 1143.68Z" fill="black"/>
</svg>
